<?xml version="1.0" encoding="utf-8"?>
<!-- Generator: Adobe Illustrator 18.1.0, SVG Export Plug-In . SVG Version: 6.00 Build 0)  -->
<svg version="1.1" id="Layer_1" xmlns="http://www.w3.org/2000/svg" xmlns:xlink="http://www.w3.org/1999/xlink" x="0px" y="0px"
	 viewBox="-45.222 354.42 490.434 86.68" enable-background="new -45.222 354.42 490.434 86.68" xml:space="preserve">
<path fill="#454545" d="M58.373,404.523c0,0-0.665,1.521-1.33,2.565l-8.455,14.06H35.193l15.96-24.51l-15.58-23.941h13.68
	l7.505,13.205c0.761,1.236,1.615,3.04,1.615,3.04h0.19c0,0,0.855-1.804,1.615-3.04l7.506-13.205h13.679l-15.58,23.941l15.96,24.51
	H68.349l-8.455-14.06c-0.666-1.045-1.331-2.565-1.331-2.565H58.373z"/>
<path fill="#454545" d="M87.632,406.709c0,0,5.319,5.319,13.205,5.319c3.42,0,6.365-1.521,6.365-4.37c0-7.22-23.56-6.27-23.56-21.85
	c0-9.025,8.075-14.25,18.525-14.25c10.925,0,16.245,5.51,16.245,5.51l-4.465,8.93c0,0-4.465-4.18-11.876-4.18
	c-3.134,0-6.174,1.33-6.174,4.37c0,6.84,23.56,5.985,23.56,21.565c0,8.074-7.03,14.535-18.525,14.535
	c-12.066,0-18.811-7.125-18.811-7.125L87.632,406.709z"/>
<path fill="#454545" d="M125.346,359.389h11.971v7.594h-11.971V359.389z M125.346,372.698h12.065v48.45h-12.065V372.698z"/>
<path fill="#454545" d="M149.477,383.053h-6.271v-9.595h6.555v-13.965h11.78v13.965h11.021v9.595h-11.021v18.811
	c0,7.979,6.271,9.12,9.596,9.12c1.329,0,2.185-0.19,2.185-0.19v10.545c0,0-1.425,0.285-3.705,0.285
	c-6.745,0-20.14-1.995-20.14-18.239L149.477,383.053L149.477,383.053z"/>
<path fill="#454545" d="M200.586,371.559c13.966,0,21.471,10.165,21.471,22.99c0,1.425-0.285,4.655-0.285,4.655h-33.44
	c0.759,8.455,7.315,12.825,14.536,12.825c7.789,0,13.965-5.319,13.965-5.319l4.654,8.646c0,0-7.41,6.935-19.475,6.935
	c-16.055,0-26.03-11.591-26.03-25.366C175.981,382.008,186.146,371.559,200.586,371.559 M209.896,390.938
	c-0.189-6.555-4.275-10.07-9.595-10.07c-6.176,0-10.45,3.8-11.591,10.07H209.896z"/>
<path fill="#407EB2" d="M246.949,435.305c9.311,0,16.72-4.37,16.72-15.012v-4.369c0-1.806,0.19-3.42,0.19-3.42h-0.19
	c-2.849,5.319-7.694,8.359-15.104,8.359c-12.824,0-21.279-10.165-21.279-24.51s7.884-24.13,20.709-24.13
	c12.636,0,15.771,7.98,15.771,7.98h0.188c0,0-0.094-0.57-0.094-1.615v-5.225h6.271v46.645c0,15.201-11.211,21.092-22.896,21.092
	c-5.51,0-11.021-1.426-15.676-3.801l2.471-5.32C234.029,431.979,239.919,435.305,246.949,435.305 M263.765,396.354
	c0-13.965-6.649-18.24-15.104-18.24c-9.312,0-14.727,6.745-14.727,18.145s6.176,18.81,15.676,18.81
	C257.115,415.068,263.765,410.414,263.765,396.354"/>
<path fill="#407EB2" d="M277.158,373.363h6.365v8.455c0,2.09-0.19,3.8-0.19,3.8h0.19c2.281-7.22,7.6-12.73,15.105-12.73
	c1.33,0,2.564,0.285,2.564,0.285v6.365c0,0-1.139-0.19-2.375-0.19c-6.745,0-11.78,5.32-13.87,12.35
	c-0.95,3.04-1.33,6.271-1.33,9.312v20.14h-6.46L277.158,373.363L277.158,373.363z"/>
<path fill="#407EB2" d="M325.132,372.223c13.966,0,25.271,10.641,25.271,24.796c0,14.44-11.306,25.271-25.271,25.271
	s-25.27-10.83-25.27-25.271C299.862,382.863,311.167,372.223,325.132,372.223 M325.132,416.494c10.261,0,18.621-8.36,18.621-19.476
	c0-10.83-8.36-18.905-18.621-18.905c-10.26,0-18.62,8.075-18.62,18.905C306.512,408.134,314.872,416.494,325.132,416.494"/>
<path fill="#407EB2" d="M354.201,373.363h6.46v28.689c0,7.506,1.142,14.156,10.355,14.156c10.925,0,17.67-9.596,17.67-19.95v-22.895
	h6.46v47.786h-6.27v-7.125c0-2.091,0.189-3.802,0.189-3.802h-0.189c-1.9,4.656-8.17,12.066-18.716,12.066
	c-11.21,0-15.96-6.08-15.96-18.525L354.201,373.363L354.201,373.363z"/>
<path fill="#407EB2" d="M401.701,373.363h6.175v4.656c0,2.09-0.188,3.705-0.188,3.705h0.188c0,0,3.896-9.501,16.53-9.501
	c12.826,0,20.806,10.261,20.806,25.081c0,15.104-9.024,24.985-21.375,24.985c-11.495,0-15.676-9.12-15.676-9.12h-0.189
	c0,0,0.189,1.71,0.189,4.18v22.8h-6.46V373.363z M423.172,416.589c8.455,0,15.391-7.125,15.391-19.285
	c0-11.685-6.176-19.191-15.106-19.191c-7.979,0-15.484,5.701-15.484,19.286C407.972,406.994,413.291,416.589,423.172,416.589"/>
<path fill="#5D99C6" d="M-43.106,392.526l19.586,30.205c3.592,5.536,11.06,7.13,16.598,3.538l30.205-19.588
	c5.537-3.59,7.13-11.059,3.539-16.597L7.234,359.88c-3.591-5.537-11.06-7.13-16.597-3.539l-30.204,19.588
	C-45.104,379.52-46.698,386.988-43.106,392.526"/>
<path fill="#407EB2" d="M26.695,403.198L6.53,433.021c-3.696,5.467-11.194,6.916-16.662,3.219l-29.823-20.165
	c-5.467-3.696-6.916-11.194-3.219-16.662l20.166-29.823c3.696-5.467,11.195-6.916,16.662-3.219l29.823,20.165
	C28.943,390.232,30.393,397.731,26.695,403.198"/>
<path fill="#FFFFFF" d="M11.175,378.219l-4.497,7.685c-0.76,1.235-1.615,3.04-1.615,3.04h-0.19c0,0-0.855-1.805-1.615-3.04
	l-12.513-20.955c-4.009-1.337-8.478-0.452-11.676,2.319l18.584,29.371l-20.099,31.275l9.161,6.193l16.828-27.019
	c0.665-1.046,1.33-2.565,1.33-2.565h0.19c0,0,0.665,1.52,1.33,2.565l8.357,13.776l6.689-9.894l-9.156-14.333l7.745-12.434
	L11.175,378.219z"/>
<path fill="none" stroke="#FFFFFF" stroke-width="0.15" stroke-miterlimit="10" d="M11.175,378.219l-4.497,7.685
	c-0.76,1.235-1.615,3.04-1.615,3.04h-0.19c0,0-0.855-1.805-1.615-3.04l-12.513-20.955c-4.009-1.337-8.478-0.452-11.676,2.319
	l18.584,29.371l-20.099,31.275l9.161,6.193l16.828-27.019c0.665-1.046,1.33-2.565,1.33-2.565h0.19c0,0,0.665,1.52,1.33,2.565
	l8.357,13.776l6.689-9.894l-9.156-14.333l7.745-12.434L11.175,378.219z"/>
</svg>
